<svg width="33" height="33" viewBox="0 0 33 33" fill="none" xmlns="http://www.w3.org/2000/svg">
<rect x="19" y="15" width="1" height="7" fill="#FF9800"/>
<mask id="path-2-inside-1_102_42" fill="white">
<path d="M32.648 19.89C31.8069 23.8963 29.5067 27.4469 26.1941 29.8519C22.8816 32.257 18.7932 33.3448 14.7235 32.9041C10.6537 32.4633 6.89303 30.5255 4.17216 27.467C1.4513 24.4085 -0.0354914 20.4478 0.000642825 16.3544C0.0367771 12.2609 1.59326 8.32709 4.36769 5.31711C7.14212 2.30713 10.9364 0.435954 15.0133 0.0671132C19.0902 -0.301727 23.1587 0.858109 26.4283 3.32128C29.6979 5.78446 31.9351 9.37508 32.7053 13.3956L29.2309 14.0612C28.6258 10.9027 26.8683 8.08187 24.2997 6.1468C21.7311 4.21173 18.5349 3.30057 15.3321 3.59033C12.1292 3.88009 9.14845 5.35009 6.96886 7.71472C4.78927 10.0794 3.56649 13.1698 3.53811 16.3856C3.50972 19.6014 4.67775 22.7129 6.81525 25.1157C8.95276 27.5184 11.9071 29.0408 15.1043 29.387C18.3016 29.7333 21.5134 28.8787 24.1157 26.9893C26.718 25.0999 28.5251 22.3105 29.1859 19.1632L32.648 19.89Z"/>
</mask>
<path d="M32.648 19.89C31.8069 23.8963 29.5067 27.4469 26.1941 29.8519C22.8816 32.257 18.7932 33.3448 14.7235 32.9041C10.6537 32.4633 6.89303 30.5255 4.17216 27.467C1.4513 24.4085 -0.0354914 20.4478 0.000642825 16.3544C0.0367771 12.2609 1.59326 8.32709 4.36769 5.31711C7.14212 2.30713 10.9364 0.435954 15.0133 0.0671132C19.0902 -0.301727 23.1587 0.858109 26.4283 3.32128C29.6979 5.78446 31.9351 9.37508 32.7053 13.3956L29.2309 14.0612C28.6258 10.9027 26.8683 8.08187 24.2997 6.1468C21.7311 4.21173 18.5349 3.30057 15.3321 3.59033C12.1292 3.88009 9.14845 5.35009 6.96886 7.71472C4.78927 10.0794 3.56649 13.1698 3.53811 16.3856C3.50972 19.6014 4.67775 22.7129 6.81525 25.1157C8.95276 27.5184 11.9071 29.0408 15.1043 29.387C18.3016 29.7333 21.5134 28.8787 24.1157 26.9893C26.718 25.0999 28.5251 22.3105 29.1859 19.1632L32.648 19.89Z" fill="#1DFF1C" stroke="#FF9800" stroke-width="2" mask="url(#path-2-inside-1_102_42)"/>
<path d="M17.3174 14.0587C18.0939 16.1294 17.5656 19.0613 15.5027 20.0494C15.3376 20.1285 15.1653 20.193 14.9878 20.2436C14.8611 20.2798 14.7318 20.3088 14.6004 20.3311C14.491 20.3497 14.3801 20.3636 14.2682 20.373C14.1638 20.3817 14.0584 20.3865 13.9524 20.3876C13.7812 20.3892 13.6082 20.3809 13.4347 20.3633C11.7374 20.1912 9.98434 19.1254 9.29323 17.6825C8.30518 15.6196 9.81092 9.91715 10.3901 8.70406C11.8817 8.70405 16.5142 11.917 17.3174 14.0587Z" fill="#1DFF1C"/>
<path d="M13.8885 16.5991C13.8995 16.6479 13.9087 16.6871 13.9147 16.7143C13.9176 16.7275 13.9202 16.7378 13.9217 16.745C13.9225 16.7486 13.923 16.7522 13.9234 16.7541L13.9235 16.7563L13.924 16.7571L13.9247 16.7623L14.3441 18.7869C14.3454 18.7935 14.3465 18.8007 14.3476 18.8073L14.6085 20.3869L14.8131 20.3187L14.991 20.2408L14.8398 19.6364L14.5333 18.6009L14.5329 18.6001L14.2539 17.6119C14.1805 17.3499 14.1195 17.1429 14.0474 16.9545L14.0419 16.9385L14.0415 16.9399L14.0414 16.9377C14.0401 16.934 14.0367 16.927 14.0325 16.9158C14.0238 16.8922 14.0088 16.8506 13.9824 16.7816C13.9542 16.708 13.9135 16.6035 13.8564 16.4572C13.8686 16.5102 13.8793 16.5582 13.8885 16.5991Z" fill="black" stroke="black" stroke-linejoin="round"/>
<path d="M5.99998 20C3.5 18.5 7.10622 24.1566 9.07535 25.6569C11.0445 27.1572 13.7152 28 16.5 28C19.2847 28 21.9555 27.1572 23.9246 25.6569C25.8937 24.1566 29.5 18.5 27 20C24.4999 21.5 8.49995 21.5 5.99998 20Z" fill="#FF9800"/>
<rect x="21.1213" y="12.9" width="1" height="3" transform="rotate(45 21.1213 12.9)" fill="#FF9800"/>
<rect x="20.76" y="10.65" width="1" height="3" transform="rotate(-1.14116 20.76 10.65)" fill="#FF9800"/>
<circle cx="21.2" cy="10" r="1" fill="#FF9800"/>
<rect x="25.92" y="17" width="1" height="3" transform="rotate(45 25.92 17)" fill="#FF9800"/>
<rect x="24.5" y="18.85" width="1" height="3" transform="rotate(90 24.5 18.85)" fill="#FF9800"/>
<rect x="21" y="18.85" width="1" height="3" rx="0.5" transform="rotate(-1.14116 21 18.85)" fill="#FF9800"/>
<rect x="24.1213" y="14" width="1" height="3" transform="rotate(45 24.1213 14)" fill="#FF9800"/>
<rect x="23.75" y="11.69" width="1" height="3" transform="rotate(-1.14116 23.75 11.69)" fill="#FF9800"/>
<circle cx="24.2001" cy="12.4" r="1" fill="#FF9800"/>
<circle cx="23" cy="16" r="1" fill="#FF9800"/>
<circle cx="26.5" cy="17" r="1" fill="#FF9800"/>
</svg>
